<svg width="36" height="36" viewBox="0 0 36 36" fill="none" xmlns="http://www.w3.org/2000/svg">
<g id="mdi:category-outline">
<path id="Vector" d="M16.5 20.25V32.25H4.5V20.25H16.5ZM13.5 23.25H7.5V29.25H13.5V23.25ZM18 3L26.25 16.5H9.75L18 3ZM18 8.79L15.12 13.5H20.88L18 8.79ZM26.25 19.5C30 19.5 33 22.5 33 26.25C33 30 30 33 26.25 33C22.5 33 19.5 30 19.5 26.25C19.5 22.5 22.5 19.5 26.25 19.5ZM26.25 22.5C25.2554 22.5 24.3016 22.8951 23.5984 23.5984C22.8951 24.3016 22.5 25.2554 22.5 26.25C22.5 27.2446 22.8951 28.1984 23.5984 28.9016C24.3016 29.6049 25.2554 30 26.25 30C27.2446 30 28.1984 29.6049 28.9016 28.9016C29.6049 28.1984 30 27.2446 30 26.25C30 25.2554 29.6049 24.3016 28.9016 23.5984C28.1984 22.8951 27.2446 22.5 26.25 22.5Z" fill="#591902"/>
</g>
</svg>
