<svg width="42" height="42" viewBox="0 0 42 42" fill="none" xmlns="http://www.w3.org/2000/svg">
<g clip-path="url(#clip0_37_1350)">
<path d="M5.25 2.625C4.55381 2.625 3.88613 2.90156 3.39384 3.39384C2.90156 3.88613 2.625 4.55381 2.625 5.25V36.75C2.625 37.4462 2.90156 38.1139 3.39384 38.6062C3.88613 39.0984 4.55381 39.375 5.25 39.375H36.75C37.4462 39.375 38.1139 39.0984 38.6062 38.6062C39.0984 38.1139 39.375 37.4462 39.375 36.75V5.25C39.375 4.55381 39.0984 3.88613 38.6062 3.39384C38.1139 2.90156 37.4462 2.625 36.75 2.625H24.9375C24.2413 2.625 23.5736 2.90156 23.0813 3.39384C22.5891 3.88613 22.3125 4.55381 22.3125 5.25V24.3941L29.2582 17.4457C29.5047 17.1993 29.839 17.0608 30.1875 17.0608C30.536 17.0608 30.8703 17.1993 31.1168 17.4457C31.3632 17.6922 31.5017 18.0265 31.5017 18.375C31.5017 18.7235 31.3632 19.0578 31.1168 19.3043L21.9293 28.4918C21.8073 28.614 21.6625 28.711 21.503 28.7771C21.3436 28.8433 21.1726 28.8773 21 28.8773C20.8274 28.8773 20.6564 28.8433 20.497 28.7771C20.3375 28.711 20.1927 28.614 20.0707 28.4918L10.8832 19.3043C10.7612 19.1822 10.6644 19.0373 10.5984 18.8779C10.5323 18.7185 10.4983 18.5476 10.4983 18.375C10.4983 18.2024 10.5323 18.0315 10.5984 17.8721C10.6644 17.7127 10.7612 17.5678 10.8832 17.4457C11.0053 17.3237 11.1502 17.2269 11.3096 17.1609C11.469 17.0948 11.6399 17.0608 11.8125 17.0608C11.9851 17.0608 12.156 17.0948 12.3154 17.1609C12.4748 17.2269 12.6197 17.3237 12.7418 17.4457L19.6875 24.3941V5.25C19.6875 3.85761 20.2406 2.52226 21.2252 1.53769C22.2098 0.553124 23.5451 0 24.9375 0L36.75 0C38.1424 0 39.4777 0.553124 40.4623 1.53769C41.4469 2.52226 42 3.85761 42 5.25V36.75C42 38.1424 41.4469 39.4777 40.4623 40.4623C39.4777 41.4469 38.1424 42 36.75 42H5.25C3.85761 42 2.52226 41.4469 1.53769 40.4623C0.553124 39.4777 0 38.1424 0 36.75V5.25C0 3.85761 0.553124 2.52226 1.53769 1.53769C2.52226 0.553124 3.85761 0 5.25 0L11.8125 0C12.1606 0 12.4944 0.138281 12.7406 0.384422C12.9867 0.630564 13.125 0.964403 13.125 1.3125C13.125 1.6606 12.9867 1.99444 12.7406 2.24058C12.4944 2.48672 12.1606 2.625 11.8125 2.625H5.25Z" fill="white"/>
</g>
<defs>
<clipPath id="clip0_37_1350">
<rect width="42" height="42" fill="white"/>
</clipPath>
</defs>
</svg>
