<svg width="37" height="37" viewBox="0 0 37 37" fill="none" xmlns="http://www.w3.org/2000/svg">
<path id="Vector" fill-rule="evenodd" clip-rule="evenodd" d="M2.8 0C2.05739 0 1.3452 0.294999 0.820101 0.820101C0.294999 1.3452 0 2.05739 0 2.8V33.6C0 34.3426 0.294999 35.0548 0.820101 35.5799C1.3452 36.105 2.05739 36.4 2.8 36.4H23.8C24.1713 36.4 24.5274 36.2525 24.7899 35.9899C25.0525 35.7274 25.2 35.3713 25.2 35C25.2 34.6287 25.0525 34.2726 24.7899 34.01C24.5274 33.7475 24.1713 33.6 23.8 33.6H2.8V2.8H23.8C24.1713 2.8 24.5274 2.6525 24.7899 2.38995C25.0525 2.1274 25.2 1.7713 25.2 1.4C25.2 1.0287 25.0525 0.672601 24.7899 0.41005C24.5274 0.1475 24.1713 0 23.8 0H2.8ZM29.6912 10.9088C29.4283 10.6459 29.0718 10.4982 28.7 10.4982C28.3282 10.4982 27.9717 10.6459 27.7088 10.9088C27.4459 11.1717 27.2982 11.5282 27.2982 11.9C27.2982 12.2718 27.4459 12.6283 27.7088 12.8912L31.6204 16.8H12.6C12.2287 16.8 11.8726 16.9475 11.6101 17.21C11.3475 17.4726 11.2 17.8287 11.2 18.2C11.2 18.5713 11.3475 18.9274 11.6101 19.1899C11.8726 19.4525 12.2287 19.6 12.6 19.6H31.6204L27.7088 23.5088C27.4459 23.7717 27.2982 24.1282 27.2982 24.5C27.2982 24.8718 27.4459 25.2283 27.7088 25.4912C27.9717 25.7541 28.3282 25.9018 28.7 25.9018C29.0718 25.9018 29.4283 25.7541 29.6912 25.4912L35.9912 19.1912C36.1216 19.0611 36.225 18.9067 36.2956 18.7366C36.3662 18.5665 36.4025 18.3841 36.4025 18.2C36.4025 18.0159 36.3662 17.8335 36.2956 17.6634C36.225 17.4933 36.1216 17.3388 35.9912 17.2088L29.6912 10.9088Z" fill="#591902"/>
</svg>
